PathFileType	4	(X/Y/Z)	C:\Git\research_data\Projects\squatting_fais\c3dfiles\036\SJ_pre1\markers_experimental.trc
DataRate	CameraRate	NumFrames	NumMarkers	Units	OrigDataRate	OrigDataStartFrame	OrigNumFrames
200.000000	200.000000	4	62	mm	200.000000	550	2200
Frame#	Time	FHD			LBHD			RBHD			C7			T10			CLAV			LSHO			LUUPA			LMUPA			LDUPA			LLEP			LMEP			LRAD			LUL			LRFIN			RSHO			RUPA1			RMUPA			RDUPA			RLEP			RMEP			RRAD			RUL			RUFIN			LASI			RASI			USACR			LSACR			RSACR			LTHI1			LTHI2			LTHI3			LTHI4			LLFC			LMFC			LTIB1			LTIB2			LTIB3			LTIB4			LLMAL			LMMAL			LHEE			LMT1			LMT2			LMT5			RTHI			RTHI2			RTHI3			RTHI4			RLFC			RMFC			RTIB1			RTIB2			RTIB3			RTIB4			RLMAL			RMMAL			RHEE			RMT1			RMT2			RMT5			*61			
		X1	Y1	Z1	X2	Y2	Z2	X3	Y3	Z3	X4	Y4	Z4	X5	Y5	Z5	X6	Y6	Z6	X7	Y7	Z7	X8	Y8	Z8	X9	Y9	Z9	X10	Y10	Z10	X11	Y11	Z11	X12	Y12	Z12	X13	Y13	Z13	X14	Y14	Z14	X15	Y15	Z15	X16	Y16	Z16	X17	Y17	Z17	X18	Y18	Z18	X19	Y19	Z19	X20	Y20	Z20	X21	Y21	Z21	X22	Y22	Z22	X23	Y23	Z23	X24	Y24	Z24	X25	Y25	Z25	X26	Y26	Z26	X27	Y27	Z27	X28	Y28	Z28	X29	Y29	Z29	X30	Y30	Z30	X31	Y31	Z31	X32	Y32	Z32	X33	Y33	Z33	X34	Y34	Z34	X35	Y35	Z35	X36	Y36	Z36	X37	Y37	Z37	X38	Y38	Z38	X39	Y39	Z39	X40	Y40	Z40	X41	Y41	Z41	X42	Y42	Z42	X43	Y43	Z43	X44	Y44	Z44	X45	Y45	Z45	X46	Y46	Z46	X47	Y47	Z47	X48	Y48	Z48	X49	Y49	Z49	X50	Y50	Z50	X51	Y51	Z51	X52	Y52	Z52	X53	Y53	Z53	X54	Y54	Z54	X55	Y55	Z55	X56	Y56	Z56	X57	Y57	Z57	X58	Y58	Z58	X59	Y59	Z59	X60	Y60	Z60	X61	Y61	Z61	X62	Y62	Z62	

551	2.75	-131.9257202148438	1510.172119140625	-907.971618652344	-291.0049743652344	1427.55859375	-957.6811523437502	-235.5171203613282	1457.587036132813	-819.279724121094	-312.9509887695313	1348.20068359375	-910.2562255859377	-390.805389404297	1053.377075195313	-901.6402587890627	-184.2801666259766	1257.65869140625	-895.8216552734377	-216.0205078125001	1305.441162109375	-1041.867553710938	-294.8545837402344	1202.664306640625	-1175.9951171875	-272.4640197753907	1158.0166015625	-1177.9658203125	-320.6764221191407	1149.682006835938	-1213.811645507813	-338.1224975585938	1096.34423828125	-1230.9013671875	-397.9931030273439	1102.091552734375	-1198.615234375	-285.2325439453126	870.2874755859377	-1175.980590820313	-314.4565124511719	898.632019042969	-1118.57470703125	-288.8607177734376	847.1180419921877	-1086.582885742188	-223.5490875244141	1304.268432617188	-745.6883544921876	-302.2506103515626	1213.577514648438	-629.6165161132814	-272.4920959472657	1174.4501953125	-622.8055419921876	-318.5172729492188	1159.183959960938	-588.1437988281251	-331.9061279296876	1091.578247070313	-561.3596801757814	-393.6798706054689	1077.522216796875	-604.5535278320314	-296.7897644042969	897.3519287109377	-676.8185424804689	-260.7823181152344	874.5369873046877	-625.8455200195314	-272.7274475097657	854.2889404296877	-716.5646972656251	-263.9542541503907	832.3066406250002	-1025.222290039063	-263.1697998046876	838.3801269531252	-764.1516723632814	-422.4409484863282	976.6444091796877	-903.4195556640627	-448.5349426269532	954.0484619140627	-928.565368652344	-444.8358154296876	957.913513183594	-872.3049316406252	-354.9456787109376	729.3694458007814	-1118.927368164063	-305.0846862792969	663.8466796875001	-1126.712280273438	-262.7745361328126	679.5026855468751	-1113.849487304688	-316.9877624511719	606.1103515625001	-1127.99169921875	-298.9631042480469	456.4509887695314	-1120.630004882813	-263.0583190917969	412.4881896972657	-981.3103027343752	-242.2249755859376	271.2279663085938	-1068.478515625	-277.7701416015626	241.379379272461	-1143.276000976563	-253.4160156250001	229.611312866211	-1106.476928710938	-272.7345581054688	149.956787109375	-1081.916870117188	-340.8733520507813	82.80489349365236	-1142.00732421875	-322.7725830078126	83.98716735839845	-1058.59912109375	-395.3539123535157	55.91468811035158	-1108.487915039063	-207.8675689697266	55.17577362060548	-1074.108154296875	-193.5394744873047	56.51617431640626	-1121.036865234375	-231.8274383544922	34.50929260253907	-1171.101318359375	-380.4302978515626	664.7376708984376	-687.6040649414064	-327.4088745117188	625.1477050781251	-675.9507446289064	-297.3101501464844	638.8119506835939	-674.3774414062501	-323.3306274414063	542.8348388671876	-686.5986328125001	-274.2692260742188	443.8460083007814	-687.2756958007814	-240.0898590087891	437.3085327148439	-827.8648681640627	-240.8053894042969	284.9475708007813	-719.4123535156251	-323.4204101562501	224.4058837890626	-670.0014648437501	-282.3529052734376	214.0981140136719	-690.0343627929689	-281.8623046875001	163.233139038086	-720.4083251953126	-375.3758850097657	81.53911590576173	-696.4274902343751	-336.4096984863282	82.65278625488283	-770.871276855469	-417.0706176757814	52.94215011596681	-736.7536621093751	-218.9170227050782	52.91943359375001	-731.8720092773439	-224.5322723388672	59.71044540405275	-681.8763427734376	-266.5716552734376	36.20088577270509	-639.9368896484376	nan	nan	nan	
552	2.755	-130.9923095703125	1508.808715820313	-907.7880859375002	-290.0802917480469	1426.247314453125	-957.5902099609377	-234.3319854736329	1456.272827148438	-819.0547485351565	-311.9179687500001	1347.170654296875	-910.3206176757815	-390.796356201172	1052.6201171875	-901.634704589844	-183.7111968994141	1256.107666015625	-895.659362792969	-215.0515289306641	1304.059692382813	-1041.813354492188	-294.3315124511719	1201.9580078125	-1175.950927734375	-271.6827697753907	1157.01025390625	-1177.97265625	-320.1160888671876	1148.908813476563	-1213.898193359375	-338.4421691894532	1095.84521484375	-1231.07958984375	-397.9207763671876	1101.638793945313	-1198.7353515625	-286.1076965332032	869.4105224609377	-1176.168334960938	-315.3865966796876	897.7852172851565	-1118.7578125	-290.0874633789063	846.1079101562502	-1086.414916992188	-222.5208282470704	1302.795654296875	-745.7626953125001	-302.0888366699219	1212.006958007813	-629.6369628906251	-272.1824035644532	1173.311645507813	-622.6765136718751	-318.0329589843751	1158.047485351563	-588.0117187500001	-331.9133300781251	1090.458984375	-561.1962890625001	-393.5345458984376	1076.52197265625	-604.5208129882814	-297.3940124511719	896.3499755859377	-676.8732299804689	-261.5084838867188	873.3621215820315	-625.7974243164064	-273.5498046875001	853.066345214844	-716.4543457031251	-264.6523132324219	831.573425292969	-1025.393920898438	-263.3875122070313	837.6027832031252	-764.4302978515626	-422.7591247558595	975.9509277343752	-903.5249633789065	-448.7770080566407	953.2368774414065	-928.626892089844	-444.7913818359376	956.947448730469	-872.6239013671877	-356.0599060058594	728.7182617187501	-1119.018432617188	-305.5408935546876	663.3973999023439	-1127.171875	-263.2178344726563	679.3735961914064	-1114.418212890625	-317.1598205566407	605.6609497070314	-1128.243774414063	-298.4150390625001	456.2207031250001	-1121.082641601563	-261.9822998046876	412.2888793945314	-981.8466796875002	-241.5709075927735	270.9713134765626	-1068.6025390625	-277.2586364746094	241.1977691650391	-1143.621459960938	-253.0454254150391	229.3221130371094	-1106.641479492188	-272.4086303710938	149.8930816650391	-1081.913208007813	-340.9861145019532	82.81721496582033	-1142.070678710938	-322.7546386718751	83.9721145629883	-1058.606689453125	-395.3499450683595	55.91577529907228	-1108.46044921875	-207.8776550292969	55.31433868408205	-1074.222534179688	-193.5417785644532	56.64213943481447	-1121.082885742188	-231.8173522949219	34.49304199218751	-1171.112548828125	-381.0524597167969	663.8743896484376	-687.5447387695314	-327.6307067871094	624.5106201171876	-675.9412841796876	-297.6943969726563	638.3570556640626	-674.1577148437501	-323.0834960937501	542.1049804687501	-686.5759887695314	-273.3037109375001	443.6133422851564	-686.8736572265626	-239.2666473388672	437.2912902832032	-827.4273071289065	-240.3965454101563	284.6856994628907	-719.3154296875001	-323.0115356445313	224.2466888427735	-669.8175659179689	-281.8792114257813	213.9354705810547	-689.7821044921876	-281.5861511230469	163.1929779052735	-720.2436523437501	-375.3705749511719	81.5611038208008	-696.4533691406251	-336.2705688476563	82.6331024169922	-770.8649902343752	-416.9574279785157	53.09068679809572	-736.7819213867189	-218.9285583496094	52.92494964599611	-731.8115844726564	-224.6149291992188	59.78136062622072	-681.7858276367189	-266.5619506835938	36.22675704956055	-639.9183349609376	nan	nan	nan	
553	2.76	-129.8329315185547	1507.298461914063	-907.6134033203127	-289.0341796875001	1424.858032226563	-957.452087402344	-233.2775573730469	1454.874145507813	-818.8594970703127	-310.7213134765626	1345.869140625	-910.076599121094	-390.7686767578126	1051.78076171875	-901.5850219726565	-182.9262237548828	1254.552124023438	-895.5420532226565	-214.2996368408204	1302.615112304688	-1041.569946289063	-293.5696716308594	1200.949584960938	-1175.853149414063	-271.7679138183594	1156.08203125	-1177.712768554688	-320.3331298828126	1148.429321289063	-1213.846435546875	-338.1013488769532	1095.189453125	-1231.1552734375	-397.9834899902345	1101.529052734375	-1198.698974609375	-286.6772460937501	868.536071777344	-1176.404541015625	-316.0142822265626	897.1291503906252	-1118.968139648438	-291.0034179687501	845.2268676757815	-1086.583984375	-221.599594116211	1301.097045898438	-745.8677978515626	-301.3137817382813	1211.266357421875	-629.3850708007814	-271.7766418457032	1171.95556640625	-622.7494506835939	-317.6830444335938	1156.885986328125	-587.9832153320314	-331.8791198730469	1089.50634765625	-561.1819458007814	-393.6558837890626	1075.944091796875	-604.3447265625001	-298.1487426757813	895.2371215820315	-676.7658081054689	-262.3867492675782	872.1219482421877	-625.8924560546876	-273.8884887695313	852.0811157226565	-716.5527954101564	-265.0218811035157	830.712097167969	-1025.648315429688	-264.4400329589844	836.3935546875002	-764.4485473632814	-423.033172607422	975.1779785156252	-903.5753173828127	-449.1947021484376	952.7500610351565	-928.6643066406252	-445.5433959960939	956.6173095703127	-872.478210449219	-356.3939819335938	727.7803344726564	-1119.18896484375	-306.0817871093751	662.8833618164064	-1127.515502929688	-263.7241821289063	679.2527465820314	-1115.034912109375	-317.1472778320313	605.1264038085939	-1128.516479492188	-297.9513549804688	455.9426879882814	-1121.530517578125	-260.9475708007813	412.2774658203126	-982.3297119140627	-241.3331604003907	270.7198181152344	-1069.021850585938	-276.5166625976563	240.879135131836	-1143.987182617188	-252.7841033935547	229.2471008300782	-1106.795043945313	-272.3479003906251	149.7315063476563	-1081.964477539063	-340.9487609863282	82.82820892333986	-1142.112670898438	-322.6367797851563	84.1858367919922	-1058.6220703125	-395.3872985839845	55.9089813232422	-1108.512329101563	-207.9213867187501	55.39514541625978	-1074.279052734375	-193.6371765136719	56.75058746337892	-1121.157348632813	-231.5739135742188	34.3720932006836	-1171.054077148438	-381.5315246582032	662.8662719726564	-687.6664428710939	-327.8861999511719	624.0086059570314	-675.7993164062501	-298.0137634277344	637.9773559570314	-674.0492553710939	-322.9166870117188	541.6668090820314	-686.4174804687501	-272.4708862304688	443.2393798828126	-686.4652709960939	-238.562240600586	437.1563720703126	-826.983825683594	-239.7085418701172	284.4424743652344	-718.6754150390626	-322.5598449707032	223.9832153320313	-669.6859741210939	-281.5202331542969	213.8391876220704	-689.4418334960939	-281.2975463867188	162.9893341064453	-720.0637817382814	-375.3773498535157	81.5665740966797	-696.3880004882814	-336.2951965332032	82.6260452270508	-770.8135375976565	-416.950408935547	53.16795730590822	-736.8164672851564	-218.8812866210938	52.92039871215822	-731.7442016601564	-224.7889099121094	59.86363983154298	-681.7180175781251	-266.6149597167969	36.26055145263673	-639.8870849609376	nan	nan	nan	
554	2.765	-128.8964996337891	1505.974853515625	-907.5136718750002	-287.9443054199219	1423.508544921875	-957.3184204101565	-232.3882904052735	1453.535888671875	-818.6552734375002	-309.8428649902344	1344.921997070313	-910.0137329101565	-390.7314453125001	1050.85986328125	-901.5595703125002	-181.8020477294922	1253.042114257813	-895.6353149414065	-213.2187652587891	1301.492431640625	-1041.4169921875	-293.0653381347657	1200.019897460938	-1175.786376953125	-271.4795532226563	1154.969970703125	-1177.505493164063	-320.0877380371094	1147.787109375	-1213.817749023438	-337.5690002441407	1094.494140625	-1231.12451171875	-397.8677062988282	1100.9697265625	-1198.876831054688	-287.4245910644532	867.6743774414065	-1176.633544921875	-317.0287780761719	896.2103271484377	-1119.184326171875	-292.0064392089844	844.5528564453127	-1086.843383789063	-220.4683685302735	1299.8251953125	-745.7083129882814	-300.6703186035157	1209.988891601563	-629.3560180664064	-271.3941040039063	1170.856811523438	-622.3709106445314	-317.3471374511719	1155.8916015625	-587.9111328125001	-331.7291870117188	1088.523315429688	-561.1260375976564	-393.6164855957032	1075.098876953125	-604.3103637695314	-298.2908020019532	894.0164184570315	-676.8740234375001	-262.9226074218751	870.647155761719	-625.6232299804689	-274.8297119140626	850.8032836914065	-716.4714355468751	-266.0871887207032	829.4401855468752	-1025.626342773438	-265.6381225585938	835.2740478515627	-764.3770751953126	-423.4097290039064	974.4404296875002	-903.6414184570315	-449.6174316406251	952.1883544921877	-928.728210449219	-445.6638183593751	955.694274902344	-872.5491943359377	-357.1112060546876	727.0181274414064	-1119.28564453125	-306.5664062500001	662.4832763671876	-1127.856201171875	-264.2424316406251	679.0666503906251	-1115.652221679688	-317.4865112304688	604.5623168945314	-1128.7373046875	-297.2436523437501	455.5617675781251	-1122.060668945313	-259.8455200195313	412.2243041992189	-982.8953857421877	-241.0642242431641	270.5813293457032	-1069.466552734375	-276.6582946777344	240.506820678711	-1143.996704101563	-252.2935791015626	229.0164794921876	-1106.961181640625	-272.1909179687501	149.5233459472657	-1081.999267578125	-340.7774658203126	82.63597869873048	-1142.15087890625	-322.7251281738282	84.00736236572267	-1058.722534179688	-395.3427734375001	55.89418029785158	-1108.480224609375	-207.9915008544922	55.4242630004883	-1074.334716796875	-193.5996551513672	56.72005844116212	-1121.256958007813	-231.6581115722657	34.37860107421876	-1171.070922851563	-382.1480102539063	662.0384521484376	-687.4993286132814	-328.1168212890626	623.3732299804689	-675.7692871093751	-298.4927978515626	637.5521240234376	-673.7801513671876	-322.7825317382813	541.1436157226564	-686.0593261718751	-271.9262390136719	442.9285888671876	-686.0432739257814	-237.4915008544922	437.0361328125001	-826.3247680664065	-239.0953369140626	284.0185852050782	-718.3277587890626	-322.0749816894532	223.8818054199219	-669.5111694335939	-281.1611022949219	213.597396850586	-689.1927490234376	-281.0624694824219	162.6492156982422	-719.7855224609376	-375.3146057128907	81.5519256591797	-696.4314575195314	-336.1635742187501	82.58465576171876	-770.813171386719	-417.0552673339845	52.97433090209962	-736.8984375000001	-218.8181457519532	52.94132232666017	-731.7044067382814	-224.7616119384766	59.84869766235353	-681.6544189453126	-266.6135864257813	36.22013473510743	-639.8696899414064	nan	nan	nan	
